<?xml version="1.0" encoding="utf-8"?>
<!-- Generator: Adobe Illustrator 19.2.1, SVG Export Plug-In . SVG Version: 6.00 Build 0)  -->
<svg version="1.1" id="Layer_1" xmlns="http://www.w3.org/2000/svg" xmlns:xlink="http://www.w3.org/1999/xlink" x="0px" y="0px"
	 viewBox="0 0 612 792" style="enable-background:new 0 0 612 792;" xml:space="preserve">
<style type="text/css">
	.st0{fill:#FFFFFF;}
	.st1{fill:#00539F;}
	.st2{fill:#0099D8;}
</style>
<path class="st0" d="M259.2,417.9"/>
<path class="st0" d="M258.9,417.7"/>
<path class="st0" d="M258.9,417.7"/>
<path class="st1" d="M259.1,291.4c-29.7-0.9-77.2,14.9-102.7,53.1c13.5,1.5,45.6,41.7,47.6,48.7c2,7,66.8,92.2,104.7,12.8
	c0,0,17.8-34.7,20.7-39.1c0,0,13.1-25.1,31.8-24.5C349.8,321.9,300.4,289.1,259.1,291.4z"/>
<path class="st2" d="M137.9,382.1L137.9,382.1C131.2,406,126.1,448,157,492c30.9,44,79.3,52.8,102.1,52.2
	c22.8-0.6,65.9-4.1,102.7-52.5c35-46.1,23.9-114.5,10.9-130.7c-9,19.8-59.4,76.2-86.2,80.2c4.8,3.2,19.9,0.9,19.9,0.9
	s10.8,0.6,11.8,5.5c-8.9-0.9-40.4,8.4-47.4,12.5c-7,4.1-35.6,22.8-53.1,6.7c8.2-0.3,34.1-8.9,37.8-15.1c-12.1,2.6-50.6-7.4-69-25.5
	C168.1,408.3,152.1,387.4,137.9,382.1z"/>
<path d="M258.6,418.4"/>
<path d="M258.3,418.3"/>
<path d="M258.3,418.3"/>
<path class="st0" d="M221.6,375.2h6.8c0,0,0-23.4,0-27c0-3.6-3.4-6.4-7.9-6.4h-14v33.4h6.8v-27c0,0,4.9,0,6.2,0
	c1.3,0,2.1,0.9,2.1,2.4c0,1.5,0,0,0,0V375.2z"/>
<path class="st0" d="M233.7,369v-18.3v-2.4c0-4.7,4.5-6.4,6.8-6.4c2.3,0,8.3,0,8.3,0c3.4,0,6.8,2.5,6.8,6.4c0,4,0,20.8,0,20.8
	c0,2.6-3.8,6.2-6.8,6.2c-3,0-8.3,0-8.3,0C237.8,375.2,233.7,372.2,233.7,369z M242.4,369h4.9c0,0,1.5-1,1.5-2.3c0,0,0-15.5,0-16.1
	c0,0,0-2.4-1.7-2.4c0,0-4-0.6-4.7,0c-1.3,0.9-1.9,0.4-1.9,2.4v16.1C241,368.8,241.8,369,242.4,369z"/>
<path class="st0" d="M260.9,375.2v-27c0-4.2,4.5-6.4,6.8-6.4c2.3,0,8.3,0,8.3,0c3.4,0,6.8,2.3,6.8,6.4c0,4.2,0,27,0,27H276v-12.6
	h-8.3v12.6H260.9z M276,350.6c0,0,0-2.4-2.5-2.4c0,0-2.4,0-3.6,0c-1.1,0-2.3,1.1-2.3,2.4v5.5h8.3V350.6z"/>
<path class="st0" d="M288.1,375.2v-27c0-4.2,4.5-6.4,6.8-6.4c2.3,0,8.3,0,8.3,0c3.4,0,6.8,2.3,6.8,6.4c0,4.2,0,27,0,27h-6.8v-12.6
	h-8.3v12.6H288.1z M303.2,350.6c0,0,0-2.4-2.5-2.4c0,0-2.5,0-3.6,0c-1.1,0-2.3,1.1-2.3,2.4v5.5h8.3V350.6z"/>
<path class="st0" d="M360.9,342.2c-18.7-0.5-31.5,24.5-31.5,24.5c-2.9,4.4-20.8,39.2-20.8,39.2c-38,79.6-103-5.9-105.1-12.9
	c-2-6.9-33.2-46.2-47.1-48.8l0,0c-9.4,13-14.1,22.8-18.6,37.8c14.2,5.3,29.7,26.1,48.2,44.3c18.4,18.1,57.1,28.1,69.2,25.5
	c-3.7,6.2-29.7,14.8-37.9,15.1c17.5,16.1,46.3-2.6,53.3-6.7c7-4.1,38.6-13.5,47.6-12.6c-1-5-11.9-5.6-11.9-5.6s-15.2,2.3-20-0.9
	c26.9-4.1,77.3-60,86.3-79.9c0.2,0.2-0.2-0.2,0,0C369.2,354.4,365.6,348.4,360.9,342.2z"/>
<path class="st0" d="M360.9,342.2c0,0,6.2,5.2,11.9,19.2l-12.3-3.9L360.9,342.2z"/>
</svg>
