<?xml version="1.0" encoding="utf-8"?>
<!-- Generator: Adobe Illustrator 19.2.1, SVG Export Plug-In . SVG Version: 6.00 Build 0)  -->
<svg version="1.1" id="Layer_1" xmlns="http://www.w3.org/2000/svg" xmlns:xlink="http://www.w3.org/1999/xlink" x="0px" y="0px"
	 viewBox="0 0 360 360" style="enable-background:new 0 0 360 360;" xml:space="preserve">
<style type="text/css">
	.st0{fill:#FFFFFF;}
	.st1{fill:#04559F;}
	.st2{fill:#0F99D6;}
	.st3{fill:#010101;}
</style>
<g>
	<path class="st0" d="M179.5,179.2"/>
	<path class="st0" d="M179.1,178.9"/>
	<path class="st0" d="M179.1,178.9"/>
	<path class="st1" d="M179.4,11.9C140.1,10.8,77.3,31.6,43.6,82.1c17.8,2,60.3,55.1,62.9,64.4s88.3,121.9,138.4,16.9
		c0,0,23.5-45.9,27.4-51.7c0,0,17.3-33.2,42-32.4C299.3,52.3,233.9,8.9,179.4,11.9z"/>
	<path class="st2" d="M19.1,131.8L19.1,131.8C10.3,163.4,3.5,219,44.4,277.1s104.8,69.8,135,69c30.1-0.8,87.1-5.4,135.8-69.4
		c46.3-60.9,31.6-151.4,14.4-172.8c-11.9,26.2-78.5,100.7-114,106c6.3,4.2,26.3,1.2,26.3,1.2s14.3,0.8,15.6,7.3
		c-11.8-1.2-53.4,11.1-62.7,16.5c-9.3,5.4-47.1,30.1-70.2,8.9c10.8-0.4,45.1-11.8,50-20c-16,3.4-66.9-9.8-91.2-33.7
		C59.1,166.5,37.9,138.9,19.1,131.8z"/>
	<path class="st3" d="M178.7,179.8"/>
	<path class="st3" d="M178.3,179.7"/>
	<path class="st3" d="M178.3,179.7"/>
	<path class="st0" d="M129.8,122.7h9c0,0,0-30.9,0-35.7s-4.5-8.5-10.4-8.5h-18.5v44.2h9V87c0,0,6.5,0,8.2,0s2.8,1.2,2.8,3.2s0,0,0,0
		L129.8,122.7L129.8,122.7z"/>
	<path class="st0" d="M145.8,114.5V90.3v-3.2c0-6.2,5.9-8.5,9-8.5s11,0,11,0c4.5,0,9,3.3,9,8.5c0,5.3,0,27.5,0,27.5
		c0,3.4-5,8.2-9,8.2s-11,0-11,0C151.2,122.7,145.8,118.8,145.8,114.5z M157.3,114.5h6.5c0,0,2-1.3,2-3c0,0,0-20.5,0-21.3
		c0,0,0-3.2-2.2-3.2c0,0-5.3-0.8-6.2,0c-1.7,1.2-2.5,0.5-2.5,3.2v21.3C155.4,114.3,156.5,114.5,157.3,114.5z"/>
	<path class="st0" d="M181.7,122.7V87c0-5.6,5.9-8.5,9-8.5c3,0,11,0,11,0c4.5,0,9,3,9,8.5c0,5.6,0,35.7,0,35.7h-9v-16.7h-11v16.7
		H181.7z M201.7,90.2c0,0,0-3.2-3.3-3.2c0,0-3.2,0-4.8,0c-1.5,0-3,1.5-3,3.2v7.3h11v-7.3H201.7z"/>
	<path class="st0" d="M217.7,122.7V87c0-5.6,5.9-8.5,9-8.5c3,0,11,0,11,0c4.5,0,9,3,9,8.5c0,5.6,0,35.7,0,35.7h-9v-16.7h-11v16.7
		H217.7z M237.7,90.2c0,0,0-3.2-3.3-3.2c0,0-3.3,0-4.8,0s-3,1.5-3,3.2v7.3h11v-7.3H237.7z"/>
	<path class="st0" d="M313.9,79.1c-24.7-0.7-41.6,32.4-41.6,32.4c-3.8,5.8-27.5,51.8-27.5,51.8c-50.2,105.2-136.2-7.8-138.9-17.1
		c-2.6-9.1-43.9-61.1-62.3-64.5l0,0C31.2,98.9,25,111.9,19,131.7c18.8,7,39.3,34.5,63.7,58.6c24.3,23.9,75.5,37.1,91.5,33.7
		c-4.9,8.2-39.3,19.6-50.1,20c23.1,21.3,61.2-3.4,70.5-8.9c9.3-5.4,51-17.8,62.9-16.7c-1.3-6.6-15.7-7.4-15.7-7.4s-20.1,3-26.4-1.2
		c35.6-5.4,102.2-79.3,114.1-105.6c0.3,0.3-0.3-0.3,0,0C324.9,95.2,320.1,87.3,313.9,79.1z"/>
	<path class="st0" d="M313.9,79.1c0,0,8.2,6.9,15.7,25.4l-16.3-5.2L313.9,79.1z"/>
</g>
</svg>
